# xmcd CD Database Entry
#
# Track frame offsets:
# 182
# 8655
# 19722
# 33002
# 46330
# 57832
# 70040
# 82127
# 96140
# 107900
#
# Disc length: 1611 seconds
#
# Revision: 4
# Processed by: cddbd v1.4PL0 Copyright (c) Steve Scherf et al.
# Submitted via: tcd 2.0b
#
DISCID=7206490a
DTITLE=Jerry Lee Lewis - Great Balls of Fire and Other Hits
DYEAR=1900
DGENRE=
TTITLE0=Great Balls of Fire
TTITLE1=What'd I Say
TTITLE2=Sweet Little Sixteen
TTITLE3=You Win Again
TTITLE4=High School Confidential
TTITLE5=Breathless
TTITLE6=Break Up
TTITLE7=I'll Make It All Up to You
TTITLE8=Drinking Wind Spo-Dee O'Dee
TTITLE9=Whole Lot of Shakin' Going On
EXTD=
EXTT0=
EXTT1=
EXTT2=
EXTT3=
EXTT4=
EXTT5=
EXTT6=
EXTT7=
EXTT8=
EXTT9=
PLAYORDER=
